<svg preserveAspectRatio="none" overflow="visible" style="display: block;" width="16.4343" height="16.4343" viewBox="0 0 16.4343 16.4343" fill="none" xmlns="http://www.w3.org/2000/svg">
<g id="boxicons:eye">
<path id="Vector" d="M8.21708 6.16292C7.67225 6.16292 7.14974 6.37935 6.76448 6.7646C6.37923 7.14986 6.1628 7.67237 6.1628 8.2172C6.1628 8.76203 6.37923 9.28455 6.76448 9.6698C7.14974 10.0551 7.67225 10.2715 8.21708 10.2715C8.76192 10.2715 9.28443 10.0551 9.66969 9.6698C10.0549 9.28455 10.2714 8.76203 10.2714 8.2172C10.2714 7.67237 10.0549 7.14986 9.66969 6.7646C9.28443 6.37935 8.76192 6.16292 8.21708 6.16292Z" fill="#A8B8C4"/>
<path id="Vector_2" d="M8.21715 13.0104C13.4419 13.0104 15.0168 8.47731 15.0305 8.43622C15.0785 8.29242 15.0785 8.14178 15.0305 8.00482C15.0168 7.95689 13.4419 3.43061 8.21715 3.43061C2.99241 3.43061 1.41746 7.95689 1.40376 7.99798C1.35583 8.14178 1.35583 8.29243 1.40376 8.42938C1.41746 8.47731 2.99241 13.0036 8.21715 13.0036V13.0104ZM8.21715 4.79329C11.8806 4.79329 13.2981 7.42962 13.6473 8.2171C13.3049 9.01143 11.8806 11.6409 8.21715 11.6409C4.55367 11.6409 3.13621 9.01143 2.78698 8.2171C3.12936 7.42278 4.55367 4.79329 8.21715 4.79329Z" fill="#A8B8C4"/>
</g>
</svg>
