<svg preserveAspectRatio="none" overflow="visible" style="display: block;" width="18" height="18" viewBox="0 0 18 18" fill="none" xmlns="http://www.w3.org/2000/svg">
<g id="line-md:instagram">
<g id="Group">
<path id="Vector" d="M12 2.25C14.07 2.25 15.75 3.93 15.75 6V12C15.75 14.07 14.07 15.75 12 15.75H6C3.93 15.75 2.25 14.07 2.25 12V6C2.25 3.93 3.93 2.25 6 2.25H9H12Z" stroke="white" stroke-width="2" stroke-linecap="round" stroke-linejoin="round"/>
<path id="Vector_2" d="M9 6C10.6575 6 12 7.3425 12 9C12 10.6575 10.6575 12 9 12C7.3425 12 6 10.6575 6 9C6 7.3425 7.3425 6 9 6Z" stroke="white" stroke-width="2" stroke-linecap="round" stroke-linejoin="round"/>
</g>
<path id="Vector_3" d="M12.75 6.375C13.3713 6.375 13.875 5.87132 13.875 5.25C13.875 4.62868 13.3713 4.125 12.75 4.125C12.1287 4.125 11.625 4.62868 11.625 5.25C11.625 5.87132 12.1287 6.375 12.75 6.375Z" fill="white"/>
</g>
</svg>
