<svg preserveAspectRatio="none" overflow="visible" style="display: block;" width="28.76" height="28.76" viewBox="0 0 28.76 28.76" fill="none" xmlns="http://www.w3.org/2000/svg">
<g id="solar:pen-outline">
<path id="Vector" fill-rule="evenodd" clip-rule="evenodd" d="M17.684 3.14087C18.7363 2.08858 20.1635 1.4974 21.6517 1.4974C23.1398 1.4974 24.5671 2.08858 25.6193 3.14087C26.6716 4.19317 27.2628 5.62039 27.2628 7.10856C27.2628 8.59673 26.6716 10.0239 25.6193 11.0762L14.2519 22.4436C13.6024 23.0931 13.2214 23.4742 12.7948 23.8062C12.2931 24.1992 11.7538 24.5327 11.177 24.8068C10.6905 25.038 10.1776 25.2094 9.30762 25.4994L5.31476 26.8296L4.3537 27.1507C3.97146 27.2783 3.56124 27.2969 3.16903 27.2044C2.77682 27.1119 2.41813 26.912 2.13318 26.627C1.84824 26.3421 1.64831 25.9834 1.55581 25.5912C1.46332 25.199 1.48191 24.7888 1.60951 24.4065L3.26082 19.4538C3.55082 18.5826 3.72218 18.0697 3.95346 17.582C4.22827 17.0068 4.56181 16.4676 4.95407 15.9643C5.28481 15.54 5.66707 15.1578 6.31657 14.5083L17.684 3.14087ZM5.27282 24.9506L8.67729 23.8145C9.62517 23.4982 10.0278 23.3628 10.4029 23.1842C10.8599 22.9653 11.2885 22.7005 11.6887 22.3897C12.0159 22.1333 12.3178 21.8349 13.0249 21.1279L22.0962 12.0565C20.8525 11.6158 19.7235 10.9016 18.7924 9.96659C17.8583 9.03528 17.145 7.90629 16.7049 6.66278L7.63354 15.7342C6.92652 16.44 6.62694 16.7408 6.3717 17.0691C6.06013 17.4686 5.7953 17.8972 5.5772 18.3549C5.39865 18.73 5.26324 19.1326 4.94688 20.0805L3.81085 23.4874L5.27282 24.9506ZM18.1609 5.2044C18.2029 5.41411 18.2712 5.69932 18.3874 6.03125C18.738 7.03432 19.3116 7.94475 20.0651 8.69395C20.8139 9.44727 21.7239 10.0209 22.7266 10.3716C23.0597 10.4879 23.3449 10.5562 23.5546 10.5981L24.3479 9.80481C25.0589 9.08886 25.4571 8.12031 25.4553 7.11132C25.4536 6.10234 25.052 5.13518 24.3385 4.42172C23.625 3.70826 22.6579 3.30666 21.6489 3.3049C20.6399 3.30313 19.6714 3.70135 18.9554 4.4123L18.1609 5.2044Z" fill="black"/>
</g>
</svg>
